<svg width="1980" height="2912" viewBox="0 0 1980 2912" fill="none" xmlns="http://www.w3.org/2000/svg">
<g filter="url(#filter0_dd_93_217)">
<path d="M659 175C650.201 175 641.489 176.733 633.36 180.1C625.231 183.467 617.845 188.402 611.624 194.624C605.402 200.845 600.467 208.231 597.1 216.36C593.733 224.489 592 233.201 592 242H623.999C623.999 237.404 624.905 232.852 626.663 228.606C628.422 224.359 631.001 220.501 634.251 217.251C637.501 214.001 641.359 211.422 645.606 209.663C649.852 207.905 654.404 206.999 659 206.999V175Z" fill="#240046" fill-opacity="0.5"/>
<rect x="659" y="175" width="749" height="32" fill="#240046" fill-opacity="0.5"/>
<rect x="592" y="242" width="32" height="237" fill="#240046" fill-opacity="0.5"/>
</g>
<g filter="url(#filter1_dd_93_217)">
<path d="M819 15C810.201 15 801.489 16.733 793.36 20.1001C785.231 23.4671 777.845 28.4023 771.624 34.6238C765.402 40.8454 760.467 48.2314 757.1 56.3602C753.733 64.489 752 73.2014 752 82H783.999C783.999 77.4036 784.905 72.8523 786.663 68.6058C788.422 64.3593 791.001 60.5008 794.251 57.2507C797.501 54.0006 801.359 51.4224 805.606 49.6635C809.852 47.9045 814.404 46.9992 819 46.9992V15Z" fill="#9D4EDD" fill-opacity="0.5"/>
<rect x="819" y="15" width="589" height="32" fill="#9D4EDD" fill-opacity="0.5"/>
<rect x="752" y="82" width="32" height="397" fill="#9D4EDD" fill-opacity="0.5"/>
</g>
<g filter="url(#filter2_dd_93_217)">
<path d="M739 95C730.201 95 721.489 96.733 713.36 100.1C705.231 103.467 697.845 108.402 691.624 114.624C685.402 120.845 680.467 128.231 677.1 136.36C673.733 144.489 672 153.201 672 162H703.999C703.999 157.404 704.905 152.852 706.663 148.606C708.422 144.359 711.001 140.501 714.251 137.251C717.501 134.001 721.359 131.422 725.606 129.663C729.852 127.905 734.404 126.999 739 126.999V95Z" fill="#5A189A" fill-opacity="0.5"/>
<rect x="739" y="95" width="669" height="32" fill="#5A189A" fill-opacity="0.5"/>
<rect x="672" y="162" width="32" height="317" fill="#5A189A" fill-opacity="0.5"/>
</g>
<rect x="592" y="479" width="32" height="833" fill="#240046" fill-opacity="0.5"/>
<rect x="672" y="479" width="32" height="833" fill="#5A189A" fill-opacity="0.5"/>
<rect x="752" y="479" width="32" height="833" fill="#9D4EDD" fill-opacity="0.5"/>
<rect x="592" y="1464" width="32" height="875" fill="#240046" fill-opacity="0.5"/>
<rect x="672" y="1464" width="32" height="875" fill="#5A189A" fill-opacity="0.5"/>
<rect x="752" y="1464" width="32" height="875" fill="#9D4EDD" fill-opacity="0.5"/>
<rect x="592" y="1312" width="32" height="152" fill="#240046" fill-opacity="0.5"/>
<rect x="672" y="1312" width="32" height="152" fill="#5A189A" fill-opacity="0.5"/>
<rect x="752" y="1312" width="32" height="152" fill="#9D4EDD" fill-opacity="0.5"/>
<g filter="url(#filter3_dd_93_217)">
<path d="M717 2707C725.799 2707 734.511 2705.27 742.64 2701.9C750.769 2698.53 758.155 2693.6 764.376 2687.38C770.598 2681.15 775.533 2673.77 778.9 2665.64C782.267 2657.51 784 2648.8 784 2640H752.001C752.001 2644.6 751.095 2649.15 749.337 2653.39C747.578 2657.64 744.999 2661.5 741.749 2664.75C738.499 2668 734.641 2670.58 730.394 2672.34C726.148 2674.1 721.596 2675 717 2675V2707Z" fill="#9D4EDD" fill-opacity="0.5"/>
<rect x="717" y="2707" width="749" height="32" transform="rotate(180 717 2707)" fill="#9D4EDD" fill-opacity="0.5"/>
<rect x="784" y="2640" width="32" height="301" transform="rotate(180 784 2640)" fill="#9D4EDD" fill-opacity="0.5"/>
</g>
<g filter="url(#filter4_dd_93_217)">
<path d="M557 2849C565.799 2849 574.511 2847.27 582.64 2843.9C590.769 2840.53 598.155 2835.6 604.376 2829.38C610.598 2823.15 615.533 2815.77 618.9 2807.64C622.267 2799.51 624 2790.8 624 2782H592.001C592.001 2786.6 591.095 2791.15 589.337 2795.39C587.578 2799.64 584.999 2803.5 581.749 2806.75C578.499 2810 574.641 2812.58 570.394 2814.34C566.148 2816.1 561.596 2817 557 2817V2849Z" fill="#240046" fill-opacity="0.5"/>
<rect x="557" y="2849" width="589" height="32" transform="rotate(180 557 2849)" fill="#240046" fill-opacity="0.5"/>
<rect x="624" y="2782" width="32" height="443" transform="rotate(180 624 2782)" fill="#240046" fill-opacity="0.5"/>
</g>
<g filter="url(#filter5_dd_93_217)">
<path d="M637 2782C645.799 2782 654.511 2780.27 662.64 2776.9C670.769 2773.53 678.155 2768.6 684.376 2762.38C690.598 2756.15 695.533 2748.77 698.9 2740.64C702.267 2732.51 704 2723.8 704 2715H672.001C672.001 2719.6 671.095 2724.15 669.337 2728.39C667.578 2732.64 664.999 2736.5 661.749 2739.75C658.499 2743 654.641 2745.58 650.394 2747.34C646.148 2749.1 641.596 2750 637 2750V2782Z" fill="#5A189A" fill-opacity="0.5"/>
<rect x="637" y="2782" width="669" height="32" transform="rotate(180 637 2782)" fill="#5A189A" fill-opacity="0.5"/>
<rect x="704" y="2715" width="32" height="376" transform="rotate(180 704 2715)" fill="#5A189A" fill-opacity="0.5"/>
</g>
<rect x="1408" y="207" width="32" height="572" transform="rotate(-90 1408 207)" fill="#240046" fill-opacity="0.5"/>
<rect x="1408" y="127" width="32" height="572" transform="rotate(-90 1408 127)" fill="#5A189A" fill-opacity="0.5"/>
<rect x="1408" y="47" width="32" height="572" transform="rotate(-90 1408 47)" fill="#9D4EDD" fill-opacity="0.5"/>
<defs>
<filter id="filter0_dd_93_217" x="554" y="160" width="892" height="382" filterUnits="userSpaceOnUse" color-interpolation-filters="sRGB">
<feFlood flood-opacity="0" result="BackgroundImageFix"/>
<feColorMatrix in="SourceAlpha" type="matrix" values="0 0 0 0 0 0 0 0 0 0 0 0 0 0 0 0 0 0 127 0" result="hardAlpha"/>
<feOffset/>
<feGaussianBlur stdDeviation="7.5"/>
<feComposite in2="hardAlpha" operator="out"/>
<feColorMatrix type="matrix" values="0 0 0 0 0 0 0 0 0 0 0 0 0 0 0 0 0 0 0.07 0"/>
<feBlend mode="normal" in2="BackgroundImageFix" result="effect1_dropShadow_93_217"/>
<feColorMatrix in="SourceAlpha" type="matrix" values="0 0 0 0 0 0 0 0 0 0 0 0 0 0 0 0 0 0 127 0" result="hardAlpha"/>
<feMorphology radius="12" operator="erode" in="SourceAlpha" result="effect2_dropShadow_93_217"/>
<feOffset dy="25"/>
<feGaussianBlur stdDeviation="25"/>
<feColorMatrix type="matrix" values="0 0 0 0 0 0 0 0 0 0 0 0 0 0 0 0 0 0 0.25 0"/>
<feBlend mode="normal" in2="effect1_dropShadow_93_217" result="effect2_dropShadow_93_217"/>
<feBlend mode="normal" in="SourceGraphic" in2="effect2_dropShadow_93_217" result="shape"/>
</filter>
<filter id="filter1_dd_93_217" x="714" y="0" width="732" height="542" filterUnits="userSpaceOnUse" color-interpolation-filters="sRGB">
<feFlood flood-opacity="0" result="BackgroundImageFix"/>
<feColorMatrix in="SourceAlpha" type="matrix" values="0 0 0 0 0 0 0 0 0 0 0 0 0 0 0 0 0 0 127 0" result="hardAlpha"/>
<feOffset/>
<feGaussianBlur stdDeviation="7.5"/>
<feComposite in2="hardAlpha" operator="out"/>
<feColorMatrix type="matrix" values="0 0 0 0 0 0 0 0 0 0 0 0 0 0 0 0 0 0 0.07 0"/>
<feBlend mode="normal" in2="BackgroundImageFix" result="effect1_dropShadow_93_217"/>
<feColorMatrix in="SourceAlpha" type="matrix" values="0 0 0 0 0 0 0 0 0 0 0 0 0 0 0 0 0 0 127 0" result="hardAlpha"/>
<feMorphology radius="12" operator="erode" in="SourceAlpha" result="effect2_dropShadow_93_217"/>
<feOffset dy="25"/>
<feGaussianBlur stdDeviation="25"/>
<feColorMatrix type="matrix" values="0 0 0 0 0 0 0 0 0 0 0 0 0 0 0 0 0 0 0.25 0"/>
<feBlend mode="normal" in2="effect1_dropShadow_93_217" result="effect2_dropShadow_93_217"/>
<feBlend mode="normal" in="SourceGraphic" in2="effect2_dropShadow_93_217" result="shape"/>
</filter>
<filter id="filter2_dd_93_217" x="634" y="80" width="812" height="462" filterUnits="userSpaceOnUse" color-interpolation-filters="sRGB">
<feFlood flood-opacity="0" result="BackgroundImageFix"/>
<feColorMatrix in="SourceAlpha" type="matrix" values="0 0 0 0 0 0 0 0 0 0 0 0 0 0 0 0 0 0 127 0" result="hardAlpha"/>
<feOffset/>
<feGaussianBlur stdDeviation="7.5"/>
<feComposite in2="hardAlpha" operator="out"/>
<feColorMatrix type="matrix" values="0 0 0 0 0 0 0 0 0 0 0 0 0 0 0 0 0 0 0.07 0"/>
<feBlend mode="normal" in2="BackgroundImageFix" result="effect1_dropShadow_93_217"/>
<feColorMatrix in="SourceAlpha" type="matrix" values="0 0 0 0 0 0 0 0 0 0 0 0 0 0 0 0 0 0 127 0" result="hardAlpha"/>
<feMorphology radius="12" operator="erode" in="SourceAlpha" result="effect2_dropShadow_93_217"/>
<feOffset dy="25"/>
<feGaussianBlur stdDeviation="25"/>
<feColorMatrix type="matrix" values="0 0 0 0 0 0 0 0 0 0 0 0 0 0 0 0 0 0 0.25 0"/>
<feBlend mode="normal" in2="effect1_dropShadow_93_217" result="effect2_dropShadow_93_217"/>
<feBlend mode="normal" in="SourceGraphic" in2="effect2_dropShadow_93_217" result="shape"/>
</filter>
<filter id="filter3_dd_93_217" x="-70" y="2324" width="892" height="446" filterUnits="userSpaceOnUse" color-interpolation-filters="sRGB">
<feFlood flood-opacity="0" result="BackgroundImageFix"/>
<feColorMatrix in="SourceAlpha" type="matrix" values="0 0 0 0 0 0 0 0 0 0 0 0 0 0 0 0 0 0 127 0" result="hardAlpha"/>
<feOffset/>
<feGaussianBlur stdDeviation="7.5"/>
<feComposite in2="hardAlpha" operator="out"/>
<feColorMatrix type="matrix" values="0 0 0 0 0 0 0 0 0 0 0 0 0 0 0 0 0 0 0.07 0"/>
<feBlend mode="normal" in2="BackgroundImageFix" result="effect1_dropShadow_93_217"/>
<feColorMatrix in="SourceAlpha" type="matrix" values="0 0 0 0 0 0 0 0 0 0 0 0 0 0 0 0 0 0 127 0" result="hardAlpha"/>
<feMorphology radius="12" operator="erode" in="SourceAlpha" result="effect2_dropShadow_93_217"/>
<feOffset dy="25"/>
<feGaussianBlur stdDeviation="25"/>
<feColorMatrix type="matrix" values="0 0 0 0 0 0 0 0 0 0 0 0 0 0 0 0 0 0 0.25 0"/>
<feBlend mode="normal" in2="effect1_dropShadow_93_217" result="effect2_dropShadow_93_217"/>
<feBlend mode="normal" in="SourceGraphic" in2="effect2_dropShadow_93_217" result="shape"/>
</filter>
<filter id="filter4_dd_93_217" x="-70" y="2324" width="732" height="588" filterUnits="userSpaceOnUse" color-interpolation-filters="sRGB">
<feFlood flood-opacity="0" result="BackgroundImageFix"/>
<feColorMatrix in="SourceAlpha" type="matrix" values="0 0 0 0 0 0 0 0 0 0 0 0 0 0 0 0 0 0 127 0" result="hardAlpha"/>
<feOffset/>
<feGaussianBlur stdDeviation="7.5"/>
<feComposite in2="hardAlpha" operator="out"/>
<feColorMatrix type="matrix" values="0 0 0 0 0 0 0 0 0 0 0 0 0 0 0 0 0 0 0.07 0"/>
<feBlend mode="normal" in2="BackgroundImageFix" result="effect1_dropShadow_93_217"/>
<feColorMatrix in="SourceAlpha" type="matrix" values="0 0 0 0 0 0 0 0 0 0 0 0 0 0 0 0 0 0 127 0" result="hardAlpha"/>
<feMorphology radius="12" operator="erode" in="SourceAlpha" result="effect2_dropShadow_93_217"/>
<feOffset dy="25"/>
<feGaussianBlur stdDeviation="25"/>
<feColorMatrix type="matrix" values="0 0 0 0 0 0 0 0 0 0 0 0 0 0 0 0 0 0 0.25 0"/>
<feBlend mode="normal" in2="effect1_dropShadow_93_217" result="effect2_dropShadow_93_217"/>
<feBlend mode="normal" in="SourceGraphic" in2="effect2_dropShadow_93_217" result="shape"/>
</filter>
<filter id="filter5_dd_93_217" x="-70" y="2324" width="812" height="521" filterUnits="userSpaceOnUse" color-interpolation-filters="sRGB">
<feFlood flood-opacity="0" result="BackgroundImageFix"/>
<feColorMatrix in="SourceAlpha" type="matrix" values="0 0 0 0 0 0 0 0 0 0 0 0 0 0 0 0 0 0 127 0" result="hardAlpha"/>
<feOffset/>
<feGaussianBlur stdDeviation="7.5"/>
<feComposite in2="hardAlpha" operator="out"/>
<feColorMatrix type="matrix" values="0 0 0 0 0 0 0 0 0 0 0 0 0 0 0 0 0 0 0.07 0"/>
<feBlend mode="normal" in2="BackgroundImageFix" result="effect1_dropShadow_93_217"/>
<feColorMatrix in="SourceAlpha" type="matrix" values="0 0 0 0 0 0 0 0 0 0 0 0 0 0 0 0 0 0 127 0" result="hardAlpha"/>
<feMorphology radius="12" operator="erode" in="SourceAlpha" result="effect2_dropShadow_93_217"/>
<feOffset dy="25"/>
<feGaussianBlur stdDeviation="25"/>
<feColorMatrix type="matrix" values="0 0 0 0 0 0 0 0 0 0 0 0 0 0 0 0 0 0 0.25 0"/>
<feBlend mode="normal" in2="effect1_dropShadow_93_217" result="effect2_dropShadow_93_217"/>
<feBlend mode="normal" in="SourceGraphic" in2="effect2_dropShadow_93_217" result="shape"/>
</filter>
</defs>
</svg>
