<svg width="74" height="44" viewBox="0 0 74 44" fill="none" xmlns="http://www.w3.org/2000/svg">
<rect width="6" height="31.3163" rx="3" transform="matrix(0.514245 0.857643 0.857643 -0.514245 42 35.6537)" fill="url(#paint0_linear_48_552)"/>
<path d="M48.1883 2.72073C46.8311 1.7704 44.9604 2.10024 44.0101 3.45746C43.0598 4.81467 43.3896 6.68531 44.7468 7.63564L66.0448 22.5486C67.402 23.499 69.2726 23.1691 70.223 21.8119C71.1733 20.4547 70.8435 18.584 69.4862 17.6337L48.1883 2.72073Z" fill="url(#paint1_linear_48_552)"/>
<path d="M73.7117 3C73.7117 1.34315 72.3686 0 70.7117 0C69.0549 0 67.7117 1.34315 67.7117 3V41C67.7117 42.6569 69.0549 44 70.7117 44C72.3686 44 73.7117 42.6569 73.7117 41V3Z" fill="#8A4AC9"/>
<rect x="31.7117" y="35.6537" width="6" height="31.3163" rx="3" transform="rotate(120.947 31.7117 35.6537)" fill="url(#paint2_linear_48_552)"/>
<path d="M25.5234 2.72073C26.8807 1.7704 28.7513 2.10024 29.7016 3.45746C30.652 4.81467 30.3221 6.68531 28.9649 7.63564L7.66695 22.5486C6.30973 23.499 4.43909 23.1691 3.48876 21.8119C2.53843 20.4547 2.86827 18.584 4.22549 17.6337L25.5234 2.72073Z" fill="url(#paint3_linear_48_552)"/>
<path d="M25.5234 2.72073C26.8807 1.7704 28.7513 2.10024 29.7016 3.45746C30.652 4.81467 30.3221 6.68531 28.9649 7.63564L7.66695 22.5486C6.30973 23.499 4.43909 23.1691 3.48876 21.8119C2.53843 20.4547 2.86827 18.584 4.22549 17.6337L25.5234 2.72073Z" fill="url(#paint4_linear_48_552)"/>
<path d="M0 3C0 1.34315 1.34315 0 3 0C4.65685 0 6 1.34315 6 3V41C6 42.6569 4.65685 44 3 44C1.34315 44 0 42.6569 0 41V3Z" fill="#8A4AC9"/>
<defs>
<linearGradient id="paint0_linear_48_552" x1="2.81411" y1="10.8259" x2="3.06698" y2="25.8321" gradientUnits="userSpaceOnUse">
<stop stop-color="#E18FFE"/>
<stop offset="1" stop-color="#8A4AC9"/>
</linearGradient>
<linearGradient id="paint1_linear_48_552" x1="52.2319" y1="8.5" x2="66.7319" y2="19" gradientUnits="userSpaceOnUse">
<stop stop-color="#E18FFE"/>
<stop offset="1" stop-color="#8A4AC9"/>
</linearGradient>
<linearGradient id="paint2_linear_48_552" x1="34.5258" y1="46.4796" x2="34.7787" y2="61.4858" gradientUnits="userSpaceOnUse">
<stop stop-color="#E18FFE"/>
<stop offset="1" stop-color="#8A4AC9"/>
</linearGradient>
<linearGradient id="paint3_linear_48_552" x1="21.4798" y1="8.5" x2="6.9798" y2="19" gradientUnits="userSpaceOnUse">
<stop stop-color="#E18FFE"/>
<stop offset="1" stop-color="#8A4AC9"/>
</linearGradient>
<linearGradient id="paint4_linear_48_552" x1="21.4798" y1="8.5" x2="6.9798" y2="19" gradientUnits="userSpaceOnUse">
<stop stop-color="#E18FFE"/>
<stop offset="1" stop-color="#8A4AC9"/>
</linearGradient>
</defs>
</svg>
